<?xml version="1.0" standalone="no"?><!DOCTYPE svg PUBLIC "-//W3C//DTD SVG 1.1//EN" "http://www.w3.org/Graphics/SVG/1.1/DTD/svg11.dtd"><svg t="1690679375345" class="icon" viewBox="0 0 1024 1024" version="1.1" xmlns="http://www.w3.org/2000/svg" p-id="2711" xmlns:xlink="http://www.w3.org/1999/xlink" width="240" height="240"><path d="M547.249914 424.266425a99.71364 99.71364 0 0 0-66.564167 0V52.501274a33.282083 33.282083 0 1 1 66.564167 0v371.765151z m-127.470974 60.906807a99.71364 99.71364 0 0 0 0 66.564166H48.013789a33.282083 33.282083 0 1 1 0-66.564166h371.765151z m60.906807 127.470974a99.71364 99.71364 0 0 0 66.564167 0v371.76515a33.282083 33.282083 0 1 1-66.564167 0v-371.76515z m127.470974-60.906808a99.71364 99.71364 0 0 0 0-66.564166h371.76515a33.282083 33.282083 0 1 1 0 66.564166h-371.76515z" fill="#293036" p-id="2712"></path><path d="M535.061532 407.20269a99.71364 99.71364 0 0 0-66.564167 0V35.43754a33.282083 33.282083 0 1 1 66.564167 0v371.76515z m-127.470974 60.906807a99.71364 99.71364 0 0 0 0 66.564167H35.825407a33.282083 33.282083 0 1 1 0-66.564167h371.765151z m60.906807 127.470974a99.71364 99.71364 0 0 0 66.564167 0v371.76515a33.282083 33.282083 0 1 1-66.564167 0v-371.76515z m127.470974-60.906807a99.71364 99.71364 0 0 0 0-66.564167h371.76515a33.282083 33.282083 0 1 1 0 66.564167h-371.76515z" fill="#FFFFFF" p-id="2713"></path></svg>