<?xml version="1.0" standalone="no"?><!DOCTYPE svg PUBLIC "-//W3C//DTD SVG 1.1//EN" "http://www.w3.org/Graphics/SVG/1.1/DTD/svg11.dtd"><svg t="1690096717406" class="icon" viewBox="0 0 1024 1024" version="1.1" xmlns="http://www.w3.org/2000/svg" p-id="7586" xmlns:xlink="http://www.w3.org/1999/xlink" width="240" height="240"><path d="M503.3 0c-201.3 0-365 163.8-365 365 0 129.3 82 263.5 152.2 339.1 61.5 66.4 188.8 277.4 190 279.5l24.2 40.3 22.9-41.1c4.7-8.5 117-208.2 176-270.3 79.6-83.8 164.7-219.1 164.7-347.6C868.3 163.8 704.6 0 503.3 0z m0 54.5c171.2 0 310.5 139.3 310.5 310.5 0 112.4-77.3 233.9-149.7 310-47.9 50.5-123 175.4-161.1 241.1-41.5-67.1-123.4-195.9-172.7-249-68.4-73.8-137.5-195.9-137.5-302.1 0-171.2 139.3-310.5 310.5-310.5z" fill="#707070" p-id="7587"></path><path d="M503.3 530.1c82.1 0 148.9-66.8 148.9-148.8 0-82.1-66.8-148.9-148.9-148.9s-148.9 66.8-148.9 148.9c0 82 66.8 148.8 148.9 148.8z m0-243.2c52 0 94.4 42.3 94.4 94.4s-42.3 94.3-94.4 94.3-94.4-42.3-94.4-94.3 42.4-94.4 94.4-94.4z" fill="#707070" p-id="7588"></path></svg>