<?xml version="1.0" standalone="no"?><!DOCTYPE svg PUBLIC "-//W3C//DTD SVG 1.1//EN" "http://www.w3.org/Graphics/SVG/1.1/DTD/svg11.dtd"><svg t="1690094941896" class="icon" viewBox="0 0 1024 1024" version="1.1" xmlns="http://www.w3.org/2000/svg" p-id="2807" xmlns:xlink="http://www.w3.org/1999/xlink" width="240" height="240"><path d="M495 3h33.9C587.7 5.7 646.3 17.1 701 39.3c114 45.1 210.2 133.1 265.6 242.4 35.2 68.5 53.8 145.2 55.5 222.1v18.3c-1.6 76-19.8 151.6-54.1 219.5-33.5 66.8-82 126-140.7 172.3-60.1 47.4-131 81-205.7 97.3-30.4 6.9-61.4 10-92.4 11.9h-33.9c-40.7-2.2-81.2-7.6-120.5-18.8-95-26.3-181.7-81.2-246.4-155.4C82.7 797 48 735.7 26.7 670.1 11.2 622.4 3.2 572.3 2 522.1v-18.2c1.8-93.1 29.2-185.6 79.4-264.1C134.6 155.9 212.8 88 303.6 47.5 363.7 20.2 429.2 6 495 3m-97.4 108.8c-32.3 40.6-53.4 88.7-70.5 137.4 24 6 48.7 8.7 73.2 12.4 30.3 3.1 60.8 5.9 91.3 6.1V45.8c-38.9 8.1-70.1 35.6-94 66m134.8 155.8c41.3-0.7 82.5-4.2 123.3-10.8 13.9-1.8 27.6-4.4 41.2-7.7-20-56.9-45.9-113.6-88.2-157.6C588 69.8 562.2 52 532.5 45.7c-0.1 74 0 148-0.1 221.9M357.3 70c-72.1 25.1-137.9 68.3-189.7 124.4 37.9 20 78.5 34.8 119.9 45.4 21.6-65.2 52-129.7 100.9-179.1-10.6 2.1-20.8 5.9-31.1 9.3m278.1-9.5c10.2 9.4 18.4 20.6 27.3 31.1 33.3 44.5 56.6 95.7 74 148.4 41.4-10.8 81.9-25.7 119.9-45.4-59.3-64.2-136.8-111.7-221.2-134.1m-495 165.8C81.8 302.4 47 396.6 43.3 492.6c68-0.1 136 0 203.9 0 1.3-72 10.5-143.8 28.7-213.5-47-12.4-92.8-29.5-135.5-52.8m607.7 52.8c18.1 69.7 27.3 141.6 28.6 213.5h204c-4-96-38.5-190.3-97.3-266.3-42.5 23.4-88.4 40.3-135.3 52.8M288 492.4c67.9 0.4 135.7 0.1 203.6 0.2V308.4c-59.1-1.1-118.2-7.2-175.9-19.9-17.6 66.5-26.2 135.2-27.7 203.9m244.4-184v184.2c67.9-0.1 135.7 0.2 203.6-0.2-1.5-68.7-10.1-137.4-27.7-203.9-57.7 12.7-116.8 18.8-175.9 19.9m-489.1 225c3.8 96 38.5 190.2 97.2 266.3 42.6-23.3 88.5-40.4 135.4-52.8-18.1-69.7-27.3-141.6-28.7-213.5H43.3m244.7 0.2c1.5 68.7 10 137.5 27.7 204 57.7-12.9 116.8-18.8 175.8-19.9V533.5c-67.8 0-135.6-0.3-203.5 0.1m244.4-0.2v184.1c59.1 1.1 118.2 7.3 176 19.9 17.3-66.6 26.4-135.3 27.3-204.1-67.7 0.3-135.5 0.1-203.3 0.1m244.3 0c-1.2 71.9-10.5 143.8-28.6 213.5 46.9 12.4 92.8 29.4 135.4 52.8 58.8-76 93.3-170.3 97.3-266.3H776.7M327.1 776.7c19.9 57.1 45.9 113.8 88.3 157.8 20.7 21.7 46.5 39.4 76.2 45.7 0.1-73.9 0-147.9 0-221.9-55.2 1.2-110.5 6.8-164.5 18.4m205.3-18.4v221.9c38.7-8.2 69.9-35.6 93.8-65.9 32.4-40.7 53.6-88.8 70.6-137.6-24.8-6-50.1-8.9-75.3-12.5-29.5-2.9-59.2-5.7-89.1-5.9m-364.8 73.2c59.2 64.1 136.6 111.6 221 134-48.9-49.5-79.5-114-101.1-179.3-41.5 10.4-81.9 25.6-119.9 45.3m568.9-45.4c-21.7 65.4-52.2 130-101.2 179.5 84.4-22.6 161.9-69.9 221.1-134.1-37.9-20-78.5-34.6-119.9-45.4" p-id="2808" fill="#707070"></path></svg>