<?xml version="1.0" standalone="no"?><!DOCTYPE svg PUBLIC "-//W3C//DTD SVG 1.1//EN" "http://www.w3.org/Graphics/SVG/1.1/DTD/svg11.dtd"><svg t="1690095100476" class="icon" viewBox="0 0 1024 1024" version="1.1" xmlns="http://www.w3.org/2000/svg" p-id="6516" xmlns:xlink="http://www.w3.org/1999/xlink" width="240" height="240"><path d="M88.064 657.92v183.296c0 26.112 10.752 49.664 27.648 67.072 17.408 17.408 40.96 27.648 67.072 27.648h183.296c12.288 0 22.016 9.728 22.016 22.016s-9.728 22.016-22.016 22.016H182.784c-38.4 0-72.704-15.36-97.792-40.96-25.088-25.088-40.96-59.904-40.96-97.792v-183.296c0-12.288 9.728-22.016 22.016-22.016s22.016 10.24 22.016 22.016z m569.856 278.016h183.296c26.112 0 49.664-10.752 67.072-27.648 17.408-17.408 27.648-40.96 27.648-67.072v-183.296c0-12.288 9.728-22.016 22.016-22.016s22.016 9.728 22.016 22.016v183.296c0 38.4-15.36 72.704-40.96 97.792-25.088 25.088-59.904 40.96-97.792 40.96h-183.296c-12.288 0-22.016-9.728-22.016-22.016s10.24-22.016 22.016-22.016z m278.016-753.152c0-26.112-10.752-49.664-28.16-67.072-17.408-17.408-40.96-27.648-67.072-27.648h-183.296c-12.288 0-22.016-9.728-22.016-22.016s9.728-22.016 22.016-22.016h183.296c38.4 0 72.704 15.36 97.792 40.96 25.088 25.088 40.96 59.904 40.96 97.792v183.296c0 12.288-9.728 22.016-22.016 22.016s-22.016-9.728-22.016-22.016c0.512 0 0.512-183.296 0.512-183.296zM182.784 88.064c-26.112 0-49.664 10.752-67.072 27.648-17.408 17.408-27.648 40.96-27.648 67.072v183.296c0 12.288-9.728 22.016-22.016 22.016s-22.016-9.728-22.016-22.016V182.784c0-38.4 15.36-72.704 40.96-97.792s59.904-40.96 97.792-40.96h183.296c12.288 0 22.016 9.728 22.016 22.016s-9.728 22.016-22.016 22.016H182.784z" p-id="6517" fill="#707070"></path></svg>